<?xml version="1.0" standalone="no"?>
<!DOCTYPE svg PUBLIC "-//W3C//DTD SVG 20010904//EN"
 "http://www.w3.org/TR/2001/REC-SVG-20010904/DTD/svg10.dtd">
<svg version="1.0" xmlns="http://www.w3.org/2000/svg"
 width="810.000000pt" height="394.000000pt" viewBox="0 0 810.000000 394.000000"
 preserveAspectRatio="xMidYMid meet">

<g transform="translate(0.000000,394.000000) scale(0.100000,-0.100000)"
fill="#000000" stroke="none">
<path d="M0 1970 l0 -1970 4050 0 4050 0 0 1970 0 1970 -4050 0 -4050 0 0
-1970z m3989 1232 c-192 -122 -224 -382 -67 -544 56 -57 104 -82 186 -98 114
-23 227 13 309 97 47 49 69 85 89 148 19 59 18 5 -1 -68 -34 -131 -106 -222
-218 -277 -249 -121 -543 32 -587 306 -29 175 63 351 223 429 89 43 130 47 66
7z m-264 -108 c-47 -62 -60 -88 -79 -161 -44 -169 2 -343 123 -464 299 -298
813 -86 812 336 0 44 -7 103 -15 130 l-15 50 19 -25 c113 -143 160 -271 160
-440 0 -118 -19 -201 -70 -305 -83 -172 -223 -291 -410 -350 -69 -22 -104 -27
-190 -27 -192 -1 -337 55 -474 182 -193 180 -264 460 -180 710 l29 85 6 -75
c8 -88 37 -171 79 -220 l29 -35 -19 63 c-54 175 2 394 132 518 37 36 87 74 95
74 2 0 -13 -21 -32 -46z m752 -213 c-10 -111 -86 -212 -185 -245 -69 -24 -157
-20 -217 8 -49 23 -107 73 -126 108 -9 16 -7 16 23 -1 18 -11 61 -25 95 -32
69 -14 147 -2 217 33 55 28 129 100 157 152 13 25 27 42 32 39 5 -3 7 -31 4
-62z m-1741 -1582 c-98 -203 -119 -254 -88 -209 138 200 292 368 366 401 45
20 49 20 67 3 27 -24 24 -59 -12 -133 -89 -189 -311 -395 -450 -417 -40 -7
-47 -16 -84 -114 -12 -34 -27 -56 -37 -58 -26 -5 -22 20 12 88 17 33 30 64 30
69 0 6 -11 21 -25 35 -46 46 -27 159 38 229 25 26 57 36 57 18 0 -5 -11 -16
-24 -24 -54 -36 -88 -176 -51 -207 9 -7 17 -11 20 -9 2 3 26 56 53 119 96 221
201 425 213 413 6 -6 -26 -82 -85 -204z m1773 141 c-5 -21 -29 -95 -54 -163
-25 -69 -45 -126 -45 -128 0 -2 29 -2 65 -1 l65 4 55 106 c30 59 68 124 85
145 33 39 60 48 60 21 0 -38 -108 -214 -131 -214 -12 0 -62 -110 -55 -118 9
-8 83 45 120 86 37 40 58 39 31 -1 -16 -24 -15 -25 3 -20 28 7 36 -14 18 -42
-9 -14 -14 -25 -11 -25 14 0 104 63 109 76 9 24 50 13 54 -15 3 -20 8 -22 34
-17 16 3 43 17 60 31 16 14 34 23 38 20 8 -5 27 20 63 82 5 8 -1 11 -17 10
-40 -3 -35 17 7 27 31 8 43 19 65 58 15 26 30 48 35 48 12 0 8 -29 -9 -62
l-16 -30 54 7 c57 8 64 12 82 46 6 12 16 21 21 19 11 -2 11 -5 0 -32 -6 -16 6
-18 154 -20 219 -4 214 -22 -8 -26 l-168 -2 -48 -113 c-51 -120 -87 -218 -82
-223 2 -2 20 18 40 44 70 90 163 182 184 182 36 0 46 -24 22 -54 -24 -30 -21
-31 28 -11 24 10 40 12 47 5 6 -6 -6 -17 -38 -30 -60 -27 -112 -36 -129 -22
-10 8 -30 -10 -85 -79 -40 -49 -80 -89 -88 -89 -20 0 -18 45 6 115 11 32 20
60 20 61 0 2 -11 -1 -24 -8 -37 -16 -60 -4 -51 30 4 15 11 32 17 39 16 20 28
5 18 -22 -11 -30 -4 -31 34 -6 19 13 40 45 61 93 36 82 34 86 -39 71 -44 -9
-32 10 -171 -297 -24 -53 -39 -76 -46 -69 -6 6 1 33 22 79 53 118 54 121 20
85 -32 -34 -51 -34 -51 1 0 17 -5 20 -27 15 -93 -18 -103 -19 -103 -8 0 7 -27
-3 -59 -21 -45 -25 -63 -30 -71 -22 -9 9 -8 19 4 42 15 29 15 30 -7 24 -12 -3
-42 -18 -66 -34 -25 -15 -52 -28 -61 -28 -12 0 -23 -22 -40 -76 -13 -41 -28
-77 -32 -80 -22 -14 -16 32 16 119 l34 97 -64 0 c-50 0 -65 -4 -72 -17 -23
-43 -93 -271 -95 -305 -1 -24 -6 -38 -14 -38 -25 0 -13 74 32 209 25 73 45
135 45 137 0 13 -81 1 -101 -15 -67 -52 -127 -63 -116 -21 5 18 2 19 -35 13
-58 -9 -46 17 16 36 41 13 53 23 83 71 76 118 234 299 273 313 26 8 39 -20 29
-63z m-679 -34 c0 -5 -208 -465 -217 -479 -3 -5 -9 -5 -14 0 -6 6 6 44 31 97
22 49 40 90 40 93 0 3 -13 -9 -30 -27 -30 -32 -50 -33 -50 0 0 16 -4 17 -35 7
-30 -9 -37 -8 -48 8 -11 15 -17 16 -36 6 -12 -7 -29 -11 -39 -10 -29 5 -59
-19 -65 -50 -8 -39 -43 -59 -65 -37 -15 14 -14 18 6 45 26 35 20 66 -8 51 -24
-13 -63 -13 -76 0 -8 8 -15 6 -24 -5 -15 -19 -60 -20 -60 -1 0 11 -11 11 -66
-2 -56 -12 -68 -12 -75 -1 -10 17 -2 48 17 69 18 18 50 1 47 -25 -1 -14 5 -16
35 -10 21 3 42 13 48 21 19 24 35 17 28 -13 l-7 -27 31 22 c37 27 42 27 42 1
0 -15 4 -19 16 -15 9 3 19 6 23 6 5 0 25 14 46 30 41 33 65 38 65 15 0 -8 -6
-15 -14 -15 -22 0 -41 -29 -28 -42 13 -13 77 17 119 55 22 20 60 17 48 -4 -4
-6 0 -9 11 -7 14 2 19 -3 18 -19 0 -18 3 -20 24 -12 14 5 38 21 54 34 16 14
34 23 39 20 9 -6 40 38 104 153 22 39 46 72 53 72 6 0 12 -2 12 -4z m1340
-143 c0 -5 -11 -21 -25 -38 -19 -24 -24 -26 -25 -12 0 27 18 57 35 57 8 0 15
-3 15 -7z m-1360 -88 c0 -10 7 -15 18 -13 12 2 16 -3 15 -20 -3 -22 -2 -22 33
-7 44 18 44 18 44 1 0 -14 -67 -46 -95 -46 -8 0 -18 7 -22 15 -7 12 -14 13
-41 3 -51 -20 -60 2 -19 46 36 37 67 47 67 21z"/>
<path d="M2998 1450 c-82 -54 -210 -204 -337 -393 -29 -43 -50 -81 -47 -84 7
-8 78 22 129 54 138 87 337 346 325 425 -5 32 -19 32 -70 -2z"/>
<path d="M4429 1423 c-57 -60 -114 -131 -168 -208 l-42 -60 43 -7 c24 -3 59
-7 79 -7 l35 -1 42 118 c54 148 73 212 64 212 -4 0 -28 -21 -53 -47z"/>
<path d="M5340 1155 c-14 -16 -10 -18 14 -9 9 3 16 10 16 15 0 14 -16 11 -30
-6z"/>
<path d="M4176 1085 c-5 -13 -2 -14 17 -4 32 17 33 19 10 19 -12 0 -23 -7 -27
-15z"/>
</g>
</svg>
